<svg xmlns="http://www.w3.org/2000/svg" viewBox="0 0 64 64" width="64" height="64">
  <!-- Main sparkle (4-pointed star), solid orange, no inner cutout -->
  <path
    d="M32 10
       C33 20 34 27 38 31
       C42 35 49 36 54 37
       C49 38 42 39 38 43
       C34 47 33 54 32 64
       C31 54 30 47 26 43
       C22 39 15 38 10 37
       C15 36 22 35 26 31
       C30 27 31 20 32 10
       Z"
    fill="#f97316"
    transform="translate(0,-5) scale(0.72)"
    transform-origin="32 32"
  />

  <!-- Small secondary sparkle, top-right -->
  <path
    d="M46 12
       C46.5 15.5 47 17.5 48.5 19
       C50 20.5 52 21 55.5 21.5
       C52 22 50 22.5 48.5 24
       C47 25.5 46.5 27.5 46 31
       C45.5 27.5 45 25.5 43.5 24
       C42 22.5 40 22 36.5 21.5
       C40 21 42 20.5 43.5 19
       C45 17.5 45.5 15.5 46 12
       Z"
    fill="#f97316"
  />
</svg>
